<?xml version="1.0" encoding="UTF-8"?>
<svg version="1.1" xmlns="http://www.w3.org/2000/svg" width="88" height="88">
<path d="M0 0 C8.76141393 7.49674555 15.63172048 16.43920621 17.5 28.05859375 C18.44452381 42.1954829 16.61809712 53.10841398 7.70703125 64.58203125 C1.15159967 71.93803766 -7.79689245 78.32022545 -17.84326172 79.28320312 C-31.11963873 79.89476363 -41.28674885 79.95459144 -52.5 72.05859375 C-53.675625 71.24841797 -53.675625 71.24841797 -54.875 70.421875 C-62.96207846 64.09618674 -68.97965002 54.22593425 -70.5 44.05859375 C-71.80106992 29.87331758 -69.4987997 18.45275741 -60.5 7.05859375 C-45.3290182 -10.64683443 -18.87135136 -14.65478379 0 0 Z " fill="#63B950" transform="translate(70.5,8.94140625)"/>
<path d="M0 0 C18.20707543 18.04422145 18.20707543 18.04422145 19.5 26.125 C18.87308918 29.72973722 17.52609037 31.39961285 15 34 C12.01002175 35.49498913 9.29957225 35.11577446 6 35 C4.515 34.505 4.515 34.505 3 34 C4.31117711 39.46891775 4.31117711 39.46891775 7.98046875 43.421875 C9.96185865 44.3897752 11.92650957 45.25137638 14 46 C14 46.66 14 47.32 14 48 C5.09 48 -3.82 48 -13 48 C-13 47.34 -13 46.68 -13 46 C-12.45730469 45.81566406 -11.91460937 45.63132813 -11.35546875 45.44140625 C-7.92262251 44.04971183 -5.57992107 43.09750534 -3.80078125 39.73046875 C-3.07971048 37.49690807 -2.47148374 35.29848323 -2 33 C-2.99 33.66 -3.98 34.32 -5 35 C-9.28482877 35.55544077 -11.29695542 35.46371025 -14.9375 33.0625 C-17.32512701 29.51723565 -17.80521618 27.51964665 -17.53515625 23.31640625 C-16.53514929 18.98790898 -13.94069402 16.22267838 -11 13 C-10.14535156 12.05125 -9.29070313 11.1025 -8.41015625 10.125 C-6.64690314 8.17434189 -4.86701598 6.24442074 -3.07421875 4.3203125 C-0.98359832 2.18610492 -0.98359832 2.18610492 0 0 Z " fill="#010301" transform="translate(43,19)"/>
<path d="M0 0 C5.56569012 4.76230925 9.92894152 9.6589741 13.5 16.05859375 C13.83902344 16.66574219 14.17804688 17.27289062 14.52734375 17.8984375 C16.75138195 22.41825706 16.75833258 26.15027467 16.5 31.05859375 C16.17 30.06859375 15.84 29.07859375 15.5 28.05859375 C11.87 28.38859375 8.24 28.71859375 4.5 29.05859375 C3.984375 27.57359375 3.46875 26.08859375 2.9375 24.55859375 C-0.71791656 15.52230177 -6.57053318 9.90437151 -15.5 6.05859375 C-18.27358621 5.24395887 -20.72299756 4.939071 -23.609375 4.9609375 C-24.74052734 4.96577148 -24.74052734 4.96577148 -25.89453125 4.97070312 C-26.67183594 4.97908203 -27.44914062 4.98746094 -28.25 4.99609375 C-29.04277344 5.00060547 -29.83554687 5.00511719 -30.65234375 5.00976562 C-32.60159508 5.0215081 -34.55080738 5.03944229 -36.5 5.05859375 C-40.5 -1.69140625 -40.5 -1.69140625 -40.5 -3.94140625 C-41.49 -4.27140625 -42.48 -4.60140625 -43.5 -4.94140625 C-29.12075965 -11.55585681 -12.62662649 -9.80536464 0 0 Z " fill="#0E100E" transform="translate(70.5,8.94140625)"/>
<path d="M0 0 C0.33 0 0.66 0 1 0 C1.15855469 0.97839844 1.31710937 1.95679688 1.48046875 2.96484375 C3.55701146 14.96741384 6.66128175 23.69094278 17 31 C25.03693806 36.63586113 34.64128582 35.36344521 44 35 C45 38 46 41 47 44 C47.66 44 48.32 44 49 44 C49 44.66 49 45.32 49 46 C38.1957212 49.05575562 24.17090182 48.85420905 14.0625 43.9375 C11.99821321 42.69446192 9.97019964 41.38734891 8 40 C6.824375 39.18982422 6.824375 39.18982422 5.625 38.36328125 C-1.49788525 32.79178199 -6.55158854 24.65183858 -9 16 C-9.125 12.625 -9.125 12.625 -9 10 C-8.67 10.66 -8.34 11.32 -8 12 C-5.03 12 -2.06 12 1 12 C0.67 10.68 0.34 9.36 0 8 C-0.12205329 5.32459184 -0.04467313 2.68038762 0 0 Z " fill="#101110" transform="translate(10,41)"/>
<path d="M0 0 C1.51400391 0.01740234 1.51400391 0.01740234 3.05859375 0.03515625 C4.07050781 0.04417969 5.08242187 0.05320313 6.125 0.0625 C6.90746094 0.07410156 7.68992188 0.08570313 8.49609375 0.09765625 C9.19908537 15.48536162 7.15833065 27.15670311 -3.50390625 39.09765625 C-7.93371756 43.19766773 -12.80734026 46.97800379 -18.50390625 49.09765625 C-20.52734375 48.90625 -20.52734375 48.90625 -22.50390625 48.09765625 C-23.8046875 46.3203125 -23.8046875 46.3203125 -24.81640625 44.16015625 C-25.16316406 43.44988281 -25.50992188 42.73960938 -25.8671875 42.0078125 C-26.07730469 41.37746094 -26.28742187 40.74710938 -26.50390625 40.09765625 C-25.25260129 37.59504633 -24.33032309 37.41043331 -21.81640625 36.28515625 C-14.66408642 32.79840033 -10.0069756 28.19667936 -6.50390625 21.09765625 C-4.56674874 15.28618371 -4.12420677 9.64092396 -3.75 3.5390625 C-3.41618569 0.22741261 -3.34053264 0.13028598 0 0 Z " fill="#131413" transform="translate(79.50390625,36.90234375)"/>
<path d="M0 0 C3.31404231 1.74907789 4.56855418 3.88927935 6.25 7.1875 C6.078125 9.2734375 6.078125 9.2734375 5.25 11.1875 C3.6484375 12.20703125 3.6484375 12.20703125 1.625 13 C-5.83370354 16.4558215 -10.35272423 22.04827043 -13.8203125 29.4140625 C-15.1954479 33.51635718 -15.45585646 37.51240439 -15.609375 41.81640625 C-15.75 44.1875 -15.75 44.1875 -16.75 45.1875 C-16.75 46.5075 -16.75 47.8275 -16.75 49.1875 C-20.38 49.1875 -24.01 49.1875 -27.75 49.1875 C-28.4017366 33.74496334 -26.46876454 22.36281109 -16.08984375 10.25 C-11.77633962 5.69085213 -6.52164729 0.44465777 0 0 Z " fill="#131513" transform="translate(27.75,3.8125)"/>
<path d="M0 0 C7.7454316 3.40663403 11.92767336 10.79070031 15.1328125 18.30078125 C16.34792714 22.0829624 16.3714079 25.06307626 16 29 C15.67 28.01 15.34 27.02 15 26 C11.37 26.33 7.74 26.66 4 27 C3.505 25.535625 3.01 24.07125 2.5 22.5625 C0.15760721 16.6131618 -3.5339308 12.48774915 -8 8 C-7.34 7.67 -6.68 7.34 -6 7 C-5.01 7.33 -4.02 7.66 -3 8 C-1.92474806 5.34771188 -0.90543849 2.71631546 0 0 Z " fill="#090909" transform="translate(71,11)"/>
<path d="M0 0 C2.70588076 -0.09403875 5.36489179 -0.0348437 8.06958008 0.0871582 C9.00995117 0.1097168 9.95032227 0.13227539 10.91918945 0.15551758 C13.24175481 0.21446594 15.56111783 0.29668036 17.88208008 0.3996582 C18.88208008 3.3996582 19.88208008 6.3996582 20.88208008 9.3996582 C21.54208008 9.3996582 22.20208008 9.3996582 22.88208008 9.3996582 C22.88208008 10.0596582 22.88208008 10.7196582 22.88208008 11.3996582 C19.71405263 12.33369528 16.86288854 12.52844375 13.56567383 12.5324707 C12.5544043 12.53375977 11.54313477 12.53504883 10.5012207 12.53637695 C9.4512793 12.53250977 8.40133789 12.52864258 7.31958008 12.5246582 C6.26577148 12.52852539 5.21196289 12.53239258 4.1262207 12.53637695 C3.11624023 12.53508789 2.10625977 12.53379883 1.06567383 12.5324707 C0.14326904 12.53134277 -0.77913574 12.53021484 -1.72949219 12.52905273 C-4.11791992 12.3996582 -4.11791992 12.3996582 -7.11791992 11.3996582 C-6.50783329 9.38167933 -5.8293508 7.38417592 -5.11791992 5.3996582 C-4.65385742 4.0693457 -4.65385742 4.0693457 -4.18041992 2.7121582 C-2.11791992 0.3996582 -2.11791992 0.3996582 0 0 Z " fill="#070807" transform="translate(36.117919921875,75.600341796875)"/>
<path d="M0 0 C0.66 0 1.32 0 2 0 C3.5625 2.8125 3.5625 2.8125 5 6 C3.68786941 9.93639176 2.17198478 10.28653597 -1.4375 12.1875 C-2.42621094 12.71730469 -3.41492188 13.24710938 -4.43359375 13.79296875 C-7 15 -7 15 -9 15 C-10.32 12.36 -11.64 9.72 -13 7 C-12.14535156 6.57847656 -11.29070313 6.15695313 -10.41015625 5.72265625 C-9.30542969 5.17480469 -8.20070313 4.62695312 -7.0625 4.0625 C-5.96035156 3.51722656 -4.85820313 2.97195312 -3.72265625 2.41015625 C-1.15205586 1.25295022 -1.15205586 1.25295022 0 0 Z " fill="#F7F7F7" transform="translate(66,70)"/>
<path d="M0 0 C1.58500588 0.9346695 3.16793416 1.87286263 4.75 2.8125 C6.07257812 3.59560547 6.07257812 3.59560547 7.421875 4.39453125 C9.71972797 5.82546696 11.86506946 7.33894423 14 9 C12.02 11.97 12.02 11.97 10 15 C3.94462479 14.69723124 0.48516542 11.72245962 -4 8 C-2.68 5.36 -1.36 2.72 0 0 Z " fill="#F4F4F4" transform="translate(20,69)"/>
<path d="M0 0 C2.64 0 5.28 0 8 0 C8.33 4.95 8.66 9.9 9 15 C5.37 15 1.74 15 -2 15 C-1.85930804 12.87465341 -1.71229079 10.74972471 -1.5625 8.625 C-1.48128906 7.44164062 -1.40007812 6.25828125 -1.31640625 5.0390625 C-1 2 -1 2 0 0 Z " fill="#EBEBEB" transform="translate(2,38)"/>
<path d="M0 0 C5.31268371 0.64396166 10.13449369 2.77574248 13.625 6.9375 C14 9 14 9 12.625 11.75 C12.08875 12.4925 11.5525 13.235 11 14 C7.34435091 13.31238981 4.48132728 11.74550455 1.25 9.9375 C0.26515625 9.38964844 -0.7196875 8.84179688 -1.734375 8.27734375 C-2.85585938 7.64505859 -2.85585938 7.64505859 -4 7 C-2.68 4.69 -1.36 2.38 0 0 Z " fill="#F5F5F5" transform="translate(57,5)"/>
<path d="M0 0 C2.10770759 2.88834003 3 4.38462395 3 8 C2.48050781 8.25394531 1.96101563 8.50789062 1.42578125 8.76953125 C-2.48665708 10.70043889 -6.2958154 12.68488463 -10 15 C-12.0625 12.1875 -12.0625 12.1875 -14 9 C-12.74397824 5.23193471 -11.48987433 4.78753493 -8.125 2.8125 C-7.24070312 2.28269531 -6.35640625 1.75289063 -5.4453125 1.20703125 C-3 0 -3 0 0 0 Z " fill="#F6F6F6" transform="translate(30,5)"/>
<path d="M0 0 C2.97 0 5.94 0 9 0 C9 5.28 9 10.56 9 16 C6.03 16 3.06 16 0 16 C0 10.72 0 5.44 0 0 Z " fill="#EFEFEF" transform="translate(77,37)"/>
<path d="M0 0 C5.73491451 -0.88229454 8.76938812 1.49896975 13.2421875 4.6875 C13.82226562 5.120625 14.40234375 5.55375 15 6 C14.34 6.66 13.68 7.32 13 8 C12.34 7.401875 11.68 6.80375 11 6.1875 C7.41816003 3.57574169 4.18622274 2.41905856 0 1 C0 0.67 0 0.34 0 0 Z " fill="#404040" transform="translate(57,4)"/>
<path d="M0 0 C0.33 0.99 0.66 1.98 1 3 C-0.59910868 4.00806851 -2.20448262 5.00620385 -3.8125 6 C-5.15248047 6.8353125 -5.15248047 6.8353125 -6.51953125 7.6875 C-9 9 -9 9 -12 9 C-9.24865461 6.04485124 -6.60266225 3.8475191 -3 2 C-2.01 2 -1.02 2 0 2 C0 1.34 0 0.68 0 0 Z " fill="#1E231D" transform="translate(33,11)"/>
<path d="M0 0 C-1.24556092 0.81928886 -2.49666635 1.63015186 -3.75 2.4375 C-4.44609375 2.88996094 -5.1421875 3.34242187 -5.859375 3.80859375 C-7.92957014 4.9608009 -9.68696324 5.54676982 -12 6 C-12 5.34 -12 4.68 -12 4 C-10.56988027 3.13353333 -9.13059381 2.28218171 -7.6875 1.4375 C-6.48673828 0.72400391 -6.48673828 0.72400391 -5.26171875 -0.00390625 C-3 -1 -3 -1 0 0 Z " fill="#3C3C3C" transform="translate(71,80)"/>
<path d="M0 0 C5.63470383 -0.5497272 8.38987758 1.04952165 13 4 C12.34 4.66 11.68 5.32 11 6 C9.39125 5.071875 9.39125 5.071875 7.75 4.125 C5.20219016 2.6676321 2.64740645 1.27075509 0 0 Z " fill="#151E13" transform="translate(51,13)"/>
</svg>
